<svg width="24" height="24" fill="none" xmlns="http://www.w3.org/2000/svg"><g clip-path="url(#clip0_77:109)"><path d="M23.456 4.443a9.095 9.095 0 01-1.16.423 5.132 5.132 0 001.044-1.837.387.387 0 00-.566-.451 9.134 9.134 0 01-2.7 1.067 5.177 5.177 0 00-3.607-1.47 5.158 5.158 0 00-5.11 5.818A13.19 13.19 0 012.304 3.19a.387.387 0 00-.634.05 5.15 5.15 0 00-.698 2.59c0 1.242.443 2.42 1.226 3.34a4.364 4.364 0 01-.69-.308.387.387 0 00-.575.33v.068a5.17 5.17 0 002.522 4.431 4.467 4.467 0 01-.392-.057.387.387 0 00-.441.498 5.15 5.15 0 003.774 3.454 9.114 9.114 0 01-4.872 1.39c-.365 0-.732-.021-1.091-.064a.388.388 0 00-.255.71 13.894 13.894 0 007.513 2.203c5.246 0 8.527-2.474 10.356-4.549 2.281-2.587 3.59-6.012 3.59-9.396 0-.141-.003-.284-.007-.426.9-.678 1.674-1.499 2.305-2.442a.387.387 0 00-.479-.569z" fill="#000"/></g><defs><clipPath id="clip0_77:109"><path fill="#fff" d="M0 0h24v24H0z"/></clipPath></defs></svg>