<svg width="24" height="24" fill="none" xmlns="http://www.w3.org/2000/svg"><path d="M14.452 23.836c-.118.005-.193.014-.268.014-1.603 0-3.201-.005-4.804.005-.225 0-.286-.061-.286-.286.004-3.732.004-7.467.004-11.199v-.323H6.516V8.062h.253c.703 0 1.406-.004 2.11.005.177 0 .224-.051.224-.225a164.33 164.33 0 010-3.14c.005-.732.122-1.444.46-2.105.482-.933 1.246-1.538 2.212-1.913.787-.309 1.617-.422 2.452-.436C15.586.23 16.945.24 18.305.234c.126 0 .23-.004.23.174-.005 1.289-.005 2.578-.005 3.867 0 .014-.005.028-.024.09h-.258c-.843 0-1.687-.006-2.53 0-.488 0-.882.196-1.13.622a.902.902 0 00-.122.441c-.014.797 0 1.594-.01 2.39 0 .188.056.24.24.24 1.171-.01 2.343-.005 3.515-.005h.342c-.164 1.34-.323 2.653-.487 3.98h-3.614v11.803z" fill="#000"/></svg>